<svg xmlns="http://www.w3.org/2000/svg" width="2048" height="2048" viewBox="0 0 512 512">
  <defs>
    <mask id="controller-cutouts">
      <rect width="512" height="512" fill="white"/>
      <circle cx="176" cy="216" r="23" fill="black"/>
      <circle cx="176" cy="300" r="23" fill="black"/>
    </mask>
  </defs>
  <g fill="none" stroke="#F2F4EF" stroke-width="28" stroke-linecap="round">
    <path d="M256 211 A45 45 0 0 1 256 301"/>
    <path d="M256 171 A85 85 0 0 1 256 341"/>
    <path d="M256 131 A125 125 0 0 1 256 381"/>
  </g>
  <path d="M152 126 C116 126 92 152 92 184 C92 208 108 226 134 232 L134 280 C108 286 92 304 92 328 C92 360 116 386 152 386 L228 376 C246 374 256 360 256 342 L256 170 C256 152 246 138 228 136 Z" fill="#F2F4EF" mask="url(#controller-cutouts)"/>
</svg>
